<svg xmlns="http://www.w3.org/2000/svg" viewBox="0 0 1200 500">
    <!-- Background -->
    <rect width="1200" height="500" fill="#ffffff"/>
    
    <!-- Input -->
    <rect x="50" y="220" width="120" height="60" rx="5" fill="#E3F2FD" stroke="#1976D2" stroke-width="2"/>
    <text x="110" y="255" font-family="Arial" font-size="14" text-anchor="middle" fill="#1976D2">Input Text</text>
    
    <!-- KcELECTRA Base -->
    <rect x="220" y="200" width="180" height="100" rx="10" fill="#E8F5E9" stroke="#2E7D32" stroke-width="2"/>
    <text x="310" y="240" font-family="Arial" font-size="14" font-weight="bold" text-anchor="middle" fill="#2E7D32">ELECTRA-base-model</text>
    <text x="310" y="265" font-family="Arial" font-size="12" text-anchor="middle" fill="#2E7D32">[CLS] token</text>
    
    <!-- Parent Model (대분류) -->
    <rect x="450" y="200" width="160" height="100" rx="5" fill="#FFEBEE" stroke="#C62828" stroke-width="2"/>
    <text x="530" y="235" font-family="Arial" font-size="14" font-weight="bold" text-anchor="middle" fill="#C62828">Parent Model</text>
    <text x="530" y="255" font-family="Arial" font-size="12" text-anchor="middle" fill="#C62828">(대분류)</text>
    <text x="530" y="275" font-family="Arial" font-size="12" text-anchor="middle" fill="#C62828">Output: 4 classes</text>
    
    <!-- Child Models (소분류) -->
    <rect x="700" y="50" width="140" height="80" rx="5" fill="#E0F7FA" stroke="#006064" stroke-width="2"/>
    <text x="770" y="85" font-family="Arial" font-size="14" text-anchor="middle" fill="#006064">[구급] 분류 모델</text>
    <text x="770" y="105" font-family="Arial" font-size="12" text-anchor="middle" fill="#006064">Output: 7 classes</text>
    
    <rect x="700" y="160" width="140" height="80" rx="5" fill="#E0F7FA" stroke="#006064" stroke-width="2"/>
    <text x="770" y="195" font-family="Arial" font-size="14" text-anchor="middle" fill="#006064">[구조] 분류 모델</text>
    <text x="770" y="215" font-family="Arial" font-size="12" text-anchor="middle" fill="#006064">Output: 3 classes</text>
    
    <rect x="700" y="270" width="140" height="80" rx="5" fill="#E0F7FA" stroke="#006064" stroke-width="2"/>
    <text x="770" y="305" font-family="Arial" font-size="14" text-anchor="middle" fill="#006064">[기타]</text>
    <text x="770" y="325" font-family="Arial" font-size="12" text-anchor="middle" fill="#006064">Output: 1 class</text>
    
    <rect x="700" y="380" width="140" height="80" rx="5" fill="#E0F7FA" stroke="#006064" stroke-width="2"/>
    <text x="770" y="415" font-family="Arial" font-size="14" text-anchor="middle" fill="#006064">[화재] 분류 모델</text>
    <text x="770" y="435" font-family="Arial" font-size="12" text-anchor="middle" fill="#006064">Output: 4 classes</text>
    
    <!-- Loss Calculations -->
    <rect x="900" y="200" width="140" height="100" rx="5" fill="#F3E5F5" stroke="#6A1B9A" stroke-width="2"/>
    <text x="970" y="235" font-family="Arial" font-size="14" font-weight="bold" text-anchor="middle" fill="#6A1B9A">Total Loss</text>
    <text x="970" y="260" font-family="Arial" font-size="12" text-anchor="middle" fill="#6A1B9A">L = L대분류 +</text>
    <text x="970" y="280" font-family="Arial" font-size="12" text-anchor="middle" fill="#6A1B9A">L소분류(selected)</text>
    
    <!-- Connection Arrows -->
    <path d="M170 250 L220 250" fill="none" stroke="#666666" stroke-width="2" marker-end="url(#arrowhead)"/>
    <path d="M400 250 L450 250" fill="none" stroke="#666666" stroke-width="2" marker-end="url(#arrowhead)"/>
    
    <!-- Parent to Child Arrows -->
    <path d="M610 250 L650 250" fill="none" stroke="#666666" stroke-width="2"/>
    <path d="M650 250 L650 90 L700 90" fill="none" stroke="#666666" stroke-width="2" marker-end="url(#arrowhead)"/>
    <path d="M650 250 L650 200 L700 200" fill="none" stroke="#666666" stroke-width="2" marker-end="url(#arrowhead)"/>
    <path d="M650 250 L650 310 L700 310" fill="none" stroke="#666666" stroke-width="2" marker-end="url(#arrowhead)"/>
    <path d="M650 250 L650 420 L700 420" fill="none" stroke="#666666" stroke-width="2" marker-end="url(#arrowhead)"/>
    
    <!-- Child to Loss Arrows -->
    <path d="M840 90 L870 90 L870 250 L900 250" fill="none" stroke="#666666" stroke-width="2" marker-end="url(#arrowhead)"/>
    <path d="M840 200 L870 200 L870 250" fill="none" stroke="#666666" stroke-width="2"/>
    <path d="M840 310 L870 310 L870 250" fill="none" stroke="#666666" stroke-width="2"/>
    <path d="M840 420 L870 420 L870 250" fill="none" stroke="#666666" stroke-width="2"/>
    
    <!-- Arrow Marker Definition -->
    <defs>
        <marker id="arrowhead" markerWidth="10" markerHeight="7" refX="9" refY="3.5" orient="auto">
            <polygon points="0 0, 10 3.5, 0 7" fill="#666666"/>
        </marker>
    </defs>
    
    <!-- Legend -->
    <rect x="50" y="470" width="1100" height="20" rx="5" fill="#F5F5F5" stroke="#9E9E9E" stroke-width="1"/>
    <text x="60" y="484" font-family="Arial" font-size="12" fill="#333333">모델 구조: Input Text → ELECTRA-base-model([CLS]) → Parent Model(대분류) → Child Models(소분류) → Loss 계산</text>
</svg>
