<svg xmlns="http://www.w3.org/2000/svg" viewBox="0 0 700 500">
    <!-- Background -->
    <rect width="700" height="500" fill="#ffffff"/>
    
    <!-- Input -->
    <rect x="50" y="150" width="120" height="60" rx="5" fill="#E3F2FD" stroke="#1976D2" stroke-width="2"/>
    <text x="110" y="185" font-family="Arial" font-size="14" text-anchor="middle" fill="#1976D2">Input Text</text>
    
    <!-- KcELECTRA Base -->
    <rect x="240" y="130" width="180" height="100" rx="10" fill="#E8F5E9" stroke="#2E7D32" stroke-width="2"/>
    <text x="330" y="170" font-family="Arial" font-size="14" font-weight="bold" text-anchor="middle" fill="#2E7D32">KcELECTRA-base</text>
    <text x="330" y="195" font-family="Arial" font-size="12" text-anchor="middle" fill="#2E7D32">[CLS] token</text>
    
    <!-- Linear Layers -->
    <rect x="500" y="100" width="140" height="60" rx="5" fill="#FFEBEE" stroke="#C62828" stroke-width="2"/>
    <text x="570" y="135" font-family="Arial" font-size="14" text-anchor="middle" fill="#C62828">Type Classifier</text>
    <text x="570" y="150" font-family="Arial" font-size="10" text-anchor="middle" fill="#C62828">(hidden_size, 대분류 개수)</text>
    
    <rect x="500" y="200" width="140" height="60" rx="5" fill="#E0F7FA" stroke="#006064" stroke-width="2"/>
    <text x="570" y="235" font-family="Arial" font-size="14" text-anchor="middle" fill="#006064">Disaster Classifier</text>
    <text x="570" y="250" font-family="Arial" font-size="10" text-anchor="middle" fill="#006064">(hidden_size, 소분류 개수)</text>
    
    <!-- Loss Calculations -->
    <rect x="500" y="300" width="140" height="40" rx="5" fill="#FFF3E0" stroke="#E65100" stroke-width="2"/>
    <text x="570" y="325" font-family="Arial" font-size="12" text-anchor="middle" fill="#E65100">Loss_대분류</text>
    
    <rect x="500" y="350" width="140" height="40" rx="5" fill="#FFF3E0" stroke="#E65100" stroke-width="2"/>
    <text x="570" y="375" font-family="Arial" font-size="12" text-anchor="middle" fill="#E65100">Loss_소분류</text>
    
    <!-- Combined Loss -->
    <rect x="500" y="420" width="140" height="50" rx="5" fill="#F3E5F5" stroke="#6A1B9A" stroke-width="2"/>
    <text x="570" y="445" font-family="Arial" font-size="14" text-anchor="middle" fill="#6A1B9A">Total Loss</text>
    <text x="570" y="460" font-family="Arial" font-size="12" text-anchor="middle" fill="#6A1B9A">Loss = L대분류 + L소분류</text>
    
    <!-- Connection Arrows -->
    <path d="M170 180 L240 180" fill="none" stroke="#666666" stroke-width="2" marker-end="url(#arrowhead)"/>
    <path d="M420 180 L460 180" fill="none" stroke="#666666" stroke-width="2"/>
    <path d="M460 180 L460 130 L500 130" fill="none" stroke="#666666" stroke-width="2" marker-end="url(#arrowhead)"/>
    <path d="M460 180 L460 230 L500 230" fill="none" stroke="#666666" stroke-width="2" marker-end="url(#arrowhead)"/>
    
    <!-- Loss Connection Arrows -->
    <path d="M570 160 L570 300" fill="none" stroke="#666666" stroke-width="2" marker-end="url(#arrowhead)"/>
    <path d="M570 260 L570 350" fill="none" stroke="#666666" stroke-width="2" marker-end="url(#arrowhead)"/>
    
    <!-- Loss Combination Arrows -->
    <path d="M570 340 L570 420" fill="none" stroke="#666666" stroke-width="2"/>
    <path d="M570 390 L570 420" fill="none" stroke="#666666" stroke-width="2"/>
    
    <!-- Arrow Marker Definition -->
    <defs>
        <marker id="arrowhead" markerWidth="10" markerHeight="7" refX="9" refY="3.5" orient="auto">
            <polygon points="0 0, 10 3.5, 0 7" fill="#666666"/>
        </marker>
    </defs>
</svg>
