<svg xmlns="http://www.w3.org/2000/svg" viewBox="0 0 700 400">
    <!-- Background -->
    <rect width="700" height="400" fill="#ffffff"/>
    
    <!-- Input -->
    <rect x="50" y="150" width="120" height="60" rx="5" fill="#E3F2FD" stroke="#1976D2" stroke-width="2"/>
    <text x="110" y="185" font-family="Arial" font-size="14" text-anchor="middle" fill="#1976D2">Input Text</text>
    
    <!-- KcELECTRA Base -->
    <rect x="240" y="130" width="180" height="100" rx="10" fill="#E8F5E9" stroke="#2E7D32" stroke-width="2"/>
    <text x="330" y="170" font-family="Arial" font-size="14" font-weight="bold" text-anchor="middle" fill="#2E7D32">KcELECTRA-base</text>
    <text x="330" y="195" font-family="Arial" font-size="12" text-anchor="middle" fill="#2E7D32">[CLS] token</text>
    
    <!-- Linear Layers -->
    <rect x="500" y="100" width="140" height="60" rx="5" fill="#FFEBEE" stroke="#C62828" stroke-width="2"/>
    <text x="570" y="135" font-family="Arial" font-size="14" text-anchor="middle" fill="#C62828">Type Classifier</text>
    <text x="570" y="150" font-family="Arial" font-size="10" text-anchor="middle" fill="#C62828">(hidden_size, num_type_labels)</text>
    
    <rect x="500" y="200" width="140" height="60" rx="5" fill="#E0F7FA" stroke="#006064" stroke-width="2"/>
    <text x="570" y="235" font-family="Arial" font-size="14" text-anchor="middle" fill="#006064">Disaster Classifier</text>
    <text x="570" y="250" font-family="Arial" font-size="10" text-anchor="middle" fill="#006064">(hidden_size, num_disaster_labels)</text>
    
    <!-- Connection Arrows -->
    <path d="M170 180 L240 180" fill="none" stroke="#666666" stroke-width="2" marker-end="url(#arrowhead)"/>
    <path d="M420 180 L460 180" fill="none" stroke="#666666" stroke-width="2"/>
    <path d="M460 180 L460 130 L500 130" fill="none" stroke="#666666" stroke-width="2" marker-end="url(#arrowhead)"/>
    <path d="M460 180 L460 230 L500 230" fill="none" stroke="#666666" stroke-width="2" marker-end="url(#arrowhead)"/>
    
    <!-- Output Arrows -->
    <path d="M640 130 L650 130" fill="none" stroke="#666666" stroke-width="2"/>
    <text x="655" y="135" font-family="Arial" font-size="12" fill="#333">logits_type</text>
    
    <path d="M640 230 L650 230" fill="none" stroke="#666666" stroke-width="2"/>
    <text x="655" y="235" font-family="Arial" font-size="12" fill="#333">logits_disaster</text>
    
    <!-- Arrow Marker Definition -->
    <defs>
        <marker id="arrowhead" markerWidth="10" markerHeight="7" refX="9" refY="3.5" orient="auto">
            <polygon points="0 0, 10 3.5, 0 7" fill="#666666"/>
        </marker>
    </defs>
    
    <!-- Legend -->
    <rect x="50" y="300" width="600" height="80" rx="5" fill="#F5F5F5" stroke="#9E9E9E" stroke-width="1"/>
    <text x="70" y="325" font-family="Arial" font-size="14" font-weight="bold">모델 구조:</text>
    <text x="70" y="350" font-family="Arial" font-size="12">1. 입력 텍스트가 KcELECTRA-base를 통과</text>
    <text x="70" y="370" font-family="Arial" font-size="12">2. [CLS] 토큰의 출력이 두 개의 독립적인 분류기(Type, Disaster)로 전달</text>
</svg>
